<!-- Generator: Adobe Illustrator 27.8.1, SVG Export Plug-In . SVG Version: 6.00 Build 0)  -->
<svg version="1.1" id="Layer_1" xmlns="http://www.w3.org/2000/svg" xmlns:xlink="http://www.w3.org/1999/xlink" x="0px" y="0px" viewBox="0 0 792.7 245.5" style="enable-background:new 0 0 792.7 245.5;" xml:space="preserve" width="792.7" height="245.5">
<style type="text/css">
	.st0{fill:#243746;}
	.st1{fill:#FFFFFF;}
</style>
<path class="st0" d="M88.2,36.2C39.5,36.2,0,75.8,0,124.5s39.5,88.3,88.2,88.3s88.3-39.5,88.3-88.3S137,36.3,88.2,36.2" />
<path class="st1" d="M120.7,173.8c1.1-1.8,2.4-3.5,3.6-5.2c3-4,6.1-8,8.9-12.2c0.6-1,1.4-1.9,1.8-3c0.2-0.4-0.1-0.9-0.2-1.3  c-1.4-3.7-3.2-7.3-4.5-11c-0.4-1.1-0.4-2.3-0.4-3.5c0.1-3.1,0.4-6.2,0.6-9.4c0.4,3.3,0.5,6.7,0.9,10c1.2-2.1,1.7-4.6,2-7  c0.4-3.6,0.3-7.4-1.3-10.6c-1.7-3.6-5.3-6.2-9.1-6.9c-1.8-0.3-3.6-0.2-5.4,0.1c-4.4,0.6-8.8,0.4-13.2,0.3c-3.5,0.1-7.1,0.1-10.5-0.7  c-2.4-0.6-4.7-1.7-6.5-3.4c-1.6-1.6-2.7-3.6-4-5.5c-1.3-1.8-2.7-3.5-4-5.2c-1.7-2.2-3.1-4.6-4.3-7.1c1.2-0.6,2.7-0.9,3.5-2.1  c0.4-0.6,0.2-1.5-0.5-1.8c-1.8-0.8-3.8-0.6-5.7-0.4c-0.6-0.4-1.1-0.8-1.7-1.1l0.3-0.6c2.2,1,4.9,1.4,7,0c2.2-1.3,3.4-3.9,3.3-6.5  c1.9,1.5,4.6,2.1,6.8,1c2.3-1,3.2-3.6,3.5-5.9c2-0.5,3.9-1.1,5.5-2.5c1.5-1.3,2.8-2.9,3.9-4.6c0.7-1.1,1.6-2.2,1.8-3.6  c-1.2-0.4-2.1,0.7-2.8,1.6c-1.1,1.6-2.5,3.1-4.1,4.4c-0.4-3,0.8-6.2,3.3-7.9c0.7-0.5,1.6-1,1.5-1.9c0-0.6-0.7-0.5-1-0.3  c-2.3,1.2-4.4,3.1-5.4,5.6c-0.8,1.8-0.8,3.9-0.4,5.8c-0.7,0.3-1.5,0.5-2.2,0.7c-0.1-1-0.1-1.9-0.3-2.9l-0.7-0.3  c-0.3,0.3-0.6,0.6-0.9,0.9c0.1,0.9,0.2,1.8,0.3,2.7c-3.3,0.9-6.7,1.2-10,2.2c-0.5-0.7-0.6-2.1-1.6-2c-1,0.7-0.3,1.8,0.1,2.6  c-2.8,1.4-5.5,3.3-7.5,5.8c-0.4,0.6-1.1,0.9-1.7,1.2c0.3-2.4,0.9-4.8,2.2-6.8c0.9-1.6,2.3-2.9,3.5-4.2c1.8-1.9,3.8-3.6,5.3-5.7  c1.2-1.6,1.7-3.5,2.1-5.4c0.2-1.2,0.3-2.4,0.1-3.7c-0.6-0.1-1.2,0.3-1.3,0.9c-0.4,1.7-0.6,3.5-1.4,5.1c-0.7,1.5-1.8,2.7-2.9,3.9  c-1.1-1.5-1.4-3.5-0.8-5.2c0.3-0.9,1-1.5,1.5-2.3c0.1-0.5-0.3-1.2-0.9-1.2c-1.8,1.4-2.9,3.7-2.7,5.9c0.1,1.5,0.9,2.8,1.6,4  c-1.9,1.9-4.1,3.6-5.6,5.8c-0.4-1.8-0.1-3.8,1.3-5.2c0.5-0.4,0.4-1.2-0.1-1.6c-0.6-0.2-0.9,0.3-1.3,0.7c-1.2,1.3-1.9,3-1.9,4.8  c0,1.1,0.4,2.2,0.9,3.2c-1.2,2.3-2,4.7-2.2,7.3c-1.1-0.1-2.1-0.8-2.5-1.9c-0.7-2.3-0.1-4.7,1.1-6.8c0.2-0.5,0.7-1.1,0.3-1.6  c-0.2-0.5-1-0.5-1.2,0C62.7,75,61.4,78,61.9,81c0.2,1.3,1.1,2.3,1.9,3.3c-1.2,0.2-2.5,0-3.3-1c-1.5-2.1-1.4-4.9-0.8-7.2  c0.3-0.7-0.5-1.2-1.1-1.2c-1,2.4-1.4,5.1-0.8,7.7c0.6,2.4,2.9,4.3,5.4,4.2c1.2,0,2.3-0.5,3.3-1.1c0.1,0.5,0.1,1.1,0.2,1.6  c-2.1,0.9-4.2,2.1-6.4,2.8c-2.9,0.9-5.7,2-8.6,3.1c-0.4,0.2-0.9,0.3-1,0.8c-0.1,0.8-0.2,1.6,0.3,2.2c0.7,0.8,1.4,1.6,2.4,1.8  c3.7,1,7.4,1.9,11.1,2.9c0.3,0.1,0.9,0.2,0.8,0.6c0.3,3.1-0.5,6.2-1.3,9.3c-1,3.2-1.2,6.7,0.1,9.9c-2.2-1.5-4.3-3-6.5-4.5  c-1.1-0.8-2.6-0.8-3.9-0.6c-2.4,0.3-4.6,1.1-6.8,2.1c-3.3,1.4-6.4,3.1-9.3,5.3c-1.4,1.1-2.5,3.3-1.6,5c0.9,1.9,1.8,3.8,2.6,5.7  c0.9-0.5,1.8-1,2.7-1.5c-0.8-0.6-1.7-1.4-1.7-2.5c-0.1-1.6,1.6-3,3.1-2.4c1.1,0.3,1.7,1.4,1.9,2.5c0.4-0.7,1.1-1.3,1.9-1.3  c1.7-0.3,3.3,1.7,2.6,3.3c-0.3,1.1-1.4,1.6-2.4,1.7c0.9,0.8,1.3,2.3,0.6,3.4c-0.8,1.4-3,1.5-3.9,0.3c-0.6-0.6-0.6-1.5-0.6-2.3  c-0.9,0.4-1.9,0.9-2.9,1.3c0.9,2,1.9,3.9,2.9,5.8c2.8-1.3,5.5-2.7,8.3-4c2.9,7,5.9,14.1,8.9,21.1c-1.3,4.1-2.6,8.2-3.8,12.3  c3.1,1.1,6.1,2.3,9.2,3.4c-1.8,0.9-3.6,1.9-5.1,3.3c-2.6,2.3-4.2,5.6-4.6,9.1c3.6-3.1,8.1-5.1,12.5-6.7c6.3-2.1,12.9-3.2,19.5-3.6  c12.1-0.8,24.3,0.2,36.4,1.8c3.4,0.5,6.8,1,10.2,0.8c-2.9-0.8-5.8-1.2-8.7-2c-2.5-0.7-5.1-1.4-7.6-2  C119.1,174.8,120.2,174.7,120.7,173.8 M89.4,75.3c-0.6,1.5-1.4,3.1-3.1,3.5c-1.7,0.3-3.2-0.7-4.4-1.8C84.4,76.3,86.9,75.7,89.4,75.3   M79.1,77.9c0.1,2,0,4.3-1.7,5.7c-1.5,1.2-3.5,0.9-5.2,0.3C73.9,81.4,76.2,79.2,79.1,77.9 M65.8,169.8c-1.6,0.5-3.4-0.5-3.9-2.1  c-0.7-1.7,0.2-3.9,1.9-4.6c2-0.9,4.5,1,4.4,3.1C68.3,167.8,67.2,169.4,65.8,169.8 M75.8,146.7c-0.2,8.4-1,16.8-1.8,25.2  c-1.3,0.3-2.6,0.6-3.9,0.9c1.2-3.2,2.4-6.5,3.5-9.7c-2.9-1.6-5.7-3.3-8.6-4.9c-0.4-0.2-0.9-0.5-1-1c-5.1-12-10.2-24.1-15.3-36.1  c1.6-0.6,3.1-1.2,4.8-1.6c0.7-0.2,1.4,0.2,2,0.6c1,0.7,1.9,1.5,2.7,2.3c2.9,3,5.3,6.4,8,9.5c1.6,1.9,4.1,2.4,6.5,2.3  c-1.7-1.3-3.3-2.9-4.2-4.8c-2.1-4-2.2-8.8-1.2-13.1c0.2,6.1,2.2,12.1,5.7,17.2c0.9,1.4,2.3,2.7,2.5,4.4  C76,140.8,75.8,143.8,75.8,146.7 M94.8,171.4c-5.8-0.4-11.6-0.6-17.4,0.1c1.6-8.2,3.2-16.5,5.1-24.7c0.5-2.2,1-4.5,1.8-6.7  c3.3,0.6,6.8,0.5,10.1,0c2.7-0.3,5.3-1,8-0.7c2.1,0.2,4.1,1.5,5.3,3.3c2.1,2.9,3.1,6.4,4.1,9.8c0.4,1.1-0.4,2.2-1,3.1  c-2,2.8-4.5,5.2-7,7.6C100.9,166,97.9,168.7,94.8,171.4 M115.1,174.3c-2-0.3-4-0.8-6-1.1c-3.8-0.7-7.6-1.2-11.5-1.6l-0.1,0.3v-0.4  c1.3-0.1,2.6-0.7,3.6-1.5c3.5-2.7,6.8-5.8,9.9-8.9c2.9-2.9,5.8-5.7,8.3-8.9c-1.5-1.9-2.6-4-3.4-6.2c-0.2-1.6,0.4-3.2,1.1-4.6  c-3.2-1.5-5.6-4.4-6.8-7.7c-1.2-3.1-1.9-6.5-2-9.9c1.6,7,5.4,13.6,10.7,18.4c2.8,3,5.3,6.3,7.5,9.9c0.8,1.4,1.8,3.1,1,4.7  c-1.5,3.5-3.8,6.5-6,9.6C119.4,169,117.2,171.7,115.1,174.3" />
<g>
	<path class="st0" d="M235.3,65.6c0,5.9-2.9,9.1-8.3,9.1s-8.4-3.4-8.4-9.4V47.4h-4.8v18.1c0,8.5,5,13.7,13.2,13.7s13.2-5.2,13.2-14   V47.4h-4.8V65.6L235.3,65.6z" />
	<polygon class="st0" points="284.5,70.1 266.7,47.4 262.5,47.4 262.5,78.9 267.2,78.9 267.2,55.7 285.5,78.9 289.2,78.9    289.2,47.4 284.5,47.4  " />
	<rect x="313.7" y="47.4" class="st0" width="4.8" height="31.4" />
	<polygon class="st0" points="354.2,72.1 344,47.4 338.7,47.4 352.2,79.1 356.1,79.1 369.6,47.4 364.4,47.4  " />
	<polygon class="st0" points="393.3,65.3 409.7,65.3 409.7,60.8 393.3,60.8 393.3,52 411.6,52 411.6,47.4 388.5,47.4 388.5,78.9    411.8,78.9 411.8,74.3 393.3,74.3  " />
	<path class="st0" d="M458.1,57.2L458.1,57.2c0-2.6-0.9-4.9-2.5-6.5c-2.1-2.1-5.3-3.2-9-3.2h-13.6v31.4h4.8V67.2h7.5l8.7,11.6h6   l-9.4-12.5C455.3,65.1,458.1,61.7,458.1,57.2L458.1,57.2z M437.8,52h8.5c4.4,0,6.9,1.9,6.9,5.2v0.1c0,3.3-2.7,5.4-7,5.4h-8.5   L437.8,52L437.8,52z" />
	<path class="st0" d="M491.3,60.8c-7-1.5-7.5-3.1-7.5-5.2c0-2.4,2.3-4.1,5.6-4.1c3,0,5.6,1,8.2,3.1l0.6,0.5l2.8-3.8l-0.5-0.4   c-3.3-2.7-6.6-3.8-11-3.8c-6.1,0-10.6,3.7-10.6,9c0,5.8,4.2,8,10.6,9.3c6.7,1.4,7.2,3,7.2,5.1c0,2.6-2.4,4.4-5.9,4.4   c-3.8,0-6.6-1.2-9.8-4l-0.6-0.5l-3,3.6l0.5,0.5c3.8,3.4,7.8,5,12.7,5c6.5,0,11-3.8,11-9.3C501.6,65.1,498.5,62.4,491.3,60.8   L491.3,60.8z" />
	<rect x="523.2" y="47.4" class="st0" width="4.8" height="31.4" />
	<polygon class="st0" points="549,52 559,52 559,78.9 563.9,78.9 563.9,52 574,52 574,47.4 549,47.4  " />
	<polygon class="st0" points="606.5,61.8 596.8,47.4 590.9,47.4 604,66.5 604,78.9 608.9,78.9 608.9,66.5 622,47.4 616.3,47.4  " />
	<path class="st0" d="M700.4,62.8c-0.2-9-7-15.8-16-15.8s-16,7.1-16,16.3s6.9,16.1,16,16.1s15.9-7,16-15.9l0-0.3L700.4,62.8   L700.4,62.8L700.4,62.8z M695.4,63.2L695.4,63.2c0,6.7-4.7,11.6-11,11.6s-11.1-5-11.1-11.7s4.7-11.5,11-11.5S695.4,56.5,695.4,63.2   z" />
	<polygon class="st0" points="744.9,52 744.9,47.4 721.9,47.4 721.9,78.9 726.7,78.9 726.7,65.8 742.9,65.8 742.9,61.3 726.7,61.3    726.7,52  " />
</g>
<path class="st0" d="M296.7,160.3v-55h20.7v54.4c0,15.7,7.6,23.8,20.3,23.8c12.6,0,20.3-7.8,20.3-23.1v-55.1h20.7v54.3  c0,29.1-16,43.4-41.2,43.4C312.1,203,296.7,188.6,296.7,160.3" />
<polygon class="st0" points="722.9,105.3 700.1,143.9 677.7,105.3 653.6,105.3 689.7,163.6 689.7,201.5 710.3,201.5 710.3,163.2   746.4,105.3 " />
<path class="st0" d="M434.4,152c10.1,0,15.8-5.5,15.8-13.6v-0.3c0-9.1-6.2-13.8-16.2-13.8h-20.5V152H434.4L434.4,152z M392.8,105.3  h42.9c11.9,0,21.2,3.4,27.4,9.8c5.2,5.4,8,12.9,8,22v0.3c0,15.5-8.2,25.3-20.1,29.8l22.9,34.4h-24.2l-20.1-30.8h-16.2v30.8h-20.7  L392.8,105.3L392.8,105.3z" />
<path class="st0" d="M528.6,152c10.1,0,15.8-5.5,15.8-13.6v-0.3c0-9.1-6.2-13.8-16.2-13.8h-20.5V152H528.6L528.6,152z M487,105.3  H530c11.9,0,21.2,3.4,27.4,9.8c5.2,5.4,8,12.9,8,22v0.3c0,15.5-8.2,25.3-20.1,29.8l22.9,34.4H544l-20.1-30.8h-16.2v30.8H487  L487,105.3L487,105.3z" />
<path class="st0" d="M235.3,131.2v-0.3c0-4.7,4.2-8.4,12.1-8.4s15.9,3.5,24.1,9.2l0.6-1l9.3-15.7c-9.3-7.2-20.6-11.3-33.7-11.3  c-19.2,0-33,11.6-33,29.1v0.3c0,19.2,12.2,24.6,31.2,29.5c15.8,4.1,19,6.9,19,12.3v0.3c0,5.7-5.1,9.1-13.6,9.1  c-10.7,0-19.5-4.5-28-11.6l-10,16.9c10.9,9,24.3,13.4,37.5,13.4c20.3,0,34.6-10.8,34.6-29.9v-0.3c0-16.8-10.8-23.9-29.9-29  C239.3,139.6,235.2,137.5,235.3,131.2" />
<polygon class="st0" points="601,182.7 601,163.2 639.1,163.2 639.1,143.6 601,143.6 601,124.1 646.6,124.1 646.6,105.3   580.4,105.3 580.4,201.5 646.6,201.5 646.6,182.7 " />
</svg>